HIERARCHY
ROOT Hips
{
	OFFSET -0.001795 -0.223333 0.028219
	CHANNELS 6 Xposition Yposition Zposition Zrotation Yrotation Xrotation 
	JOINT LeftUpLeg
	{
		OFFSET 0.069520 -0.091406 -0.006815
		CHANNELS 3 Zrotation Yrotation Xrotation
		JOINT LeftLeg
		{
			OFFSET 0.034277 -0.375199 -0.004496
			CHANNELS 3 Zrotation Yrotation Xrotation
			JOINT LeftFoot
			{
				OFFSET -0.013596 -0.397961 -0.043693
				CHANNELS 3 Zrotation Yrotation Xrotation
				JOINT LeftToe
				{
					OFFSET 0.026358 -0.055791 0.119288
					CHANNELS 3 Zrotation Yrotation Xrotation
					End Site
					{
						OFFSET 0.000000 0.000000 0.000000
					}
				}
			}
		}
	}
	JOINT RightUpLeg
	{
		OFFSET -0.067670 -0.090522 -0.004320
		CHANNELS 3 Zrotation Yrotation Xrotation
		JOINT RightLeg
		{
			OFFSET -0.038290 -0.382569 -0.008850
			CHANNELS 3 Zrotation Yrotation Xrotation
			JOINT RightFoot
			{
				OFFSET 0.015774 -0.398415 -0.042312
				CHANNELS 3 Zrotation Yrotation Xrotation
				JOINT RightToe
				{
					OFFSET -0.025372 -0.048144 0.123348
					CHANNELS 3 Zrotation Yrotation Xrotation
					End Site
					{
						OFFSET 0.000000 0.000000 0.000000
					}
				}
			}
		}
	}
	JOINT Spine
	{
		OFFSET -0.002533 0.108963 -0.026696
		CHANNELS 3 Zrotation Yrotation Xrotation
		JOINT Spine1
		{
			OFFSET 0.005487 0.135180 0.001092
			CHANNELS 3 Zrotation Yrotation Xrotation
			JOINT Spine2
			{
				OFFSET 0.001457 0.052922 0.025425
				CHANNELS 3 Zrotation Yrotation Xrotation
				JOINT Neck
				{
					OFFSET -0.002778 0.213870 -0.042857
					CHANNELS 3 Zrotation Yrotation Xrotation
					JOINT Head
					{
						OFFSET 0.005152 0.064970 0.051349
						CHANNELS 3 Zrotation Yrotation Xrotation
						End Site
						{
							OFFSET 0.000000 0.000000 0.000000
						}
					}
				}
				JOINT LeftShoulder
				{
					OFFSET 0.078845 0.121749 -0.034090
					CHANNELS 3 Zrotation Yrotation Xrotation
					JOINT LeftArm
					{
						OFFSET 0.090977 0.030469 -0.008868
						CHANNELS 3 Zrotation Yrotation Xrotation
						JOINT LeftForeArm
						{
							OFFSET 0.259612 -0.012772 -0.027456
							CHANNELS 3 Zrotation Yrotation Xrotation
							JOINT LeftHand
							{
								OFFSET 0.249234 0.008986 -0.001171
								CHANNELS 3 Zrotation Yrotation Xrotation
								End Site
								{
									OFFSET 0.000000 0.000000 0.000000
								}
							}
						}
					}
				}
				JOINT RightShoulder
				{
					OFFSET -0.081759 0.118833 -0.038615
					CHANNELS 3 Zrotation Yrotation Xrotation
					JOINT RightArm
					{
						OFFSET -0.096012 0.032551 -0.009143
						CHANNELS 3 Zrotation Yrotation Xrotation
						JOINT RightForeArm
						{
							OFFSET -0.253742 -0.013329 -0.021401
							CHANNELS 3 Zrotation Yrotation Xrotation
							JOINT RightHand
							{
								OFFSET -0.255298 0.007772 -0.005559
								CHANNELS 3 Zrotation Yrotation Xrotation
								End Site
								{
									OFFSET 0.000000 0.000000 0.000000
								}
							}
						}
					}
				}
			}
		}
	}
}
MOTION
Frames: 8
Frame Time: 0.050000
0.000000 0.959764 0.000000 -0.829026 24.399129 3.977058 0.104787 -0.425856 -5.219374 -0.255960 0.067672 -2.424370 -3.266356 2.781606 12.618890 0.000000 0.000000 0.000000 -0.807696 0.741370 -9.871109 -2.703709 0.566226 6.438354 -6.324186 -13.261207 17.207507 0.000000 0.000000 0.000000 0.490622 -0.316199 5.867254 2.762064 -0.679977 -5.301350 -4.191459 -0.709217 4.668516 6.610022 -2.280726 -12.262491 0.000000 0.000000 0.000000 -15.721093 -3.316383 -2.714978 -50.400463 -6.469403 -2.906428 -16.137634 -31.074422 4.465663 0.000000 0.000000 0.000000 16.853727 -2.343719 0.089825 55.552164 5.086950 -3.178144 9.751482 32.561226 4.937747 0.000000 0.000000 0.000000 
0.001380 0.957806 -0.001461 -1.115798 25.239444 4.229256 -0.096036 -0.437650 -5.401590 0.431845 0.055239 -3.046443 -3.553428 2.151887 12.119350 0.000000 0.000000 0.000000 -0.982814 0.745069 -10.647323 -2.483984 0.519176 7.091068 -6.289447 -13.019081 17.389371 0.000000 0.000000 0.000000 0.581196 -0.349579 6.227608 2.202186 -0.346136 -6.096603 -4.116786 -0.964575 5.447541 7.441271 -2.462530 -13.870603 0.000000 0.000000 0.000000 -13.653323 -2.543942 -2.621469 -52.931414 -6.921299 -3.201968 -15.698401 -33.505879 4.569103 0.000000 0.000000 0.000000 17.019538 -3.696002 -0.547639 55.673496 2.581298 -4.385766 10.598485 33.084016 5.372929 0.000000 0.000000 0.000000 
0.002184 0.958013 -0.002112 -1.060084 24.345956 4.448427 -0.154041 -0.517770 -6.183339 0.279015 0.033686 -1.919835 -3.008778 2.817193 11.981950 0.000000 0.000000 0.000000 -1.456226 0.746798 -11.785759 -1.922922 0.414653 8.259032 -5.951085 -12.559698 17.651200 0.000000 0.000000 0.000000 0.029670 -0.359989 7.009903 2.282891 -0.245995 -7.546948 -3.891380 -0.700513 6.670844 7.377514 -2.493385 -13.741039 0.000000 0.000000 0.000000 -13.528623 -1.949966 -2.787881 -52.304675 -7.360726 -3.097335 -18.603482 -33.336027 5.430859 0.000000 0.000000 0.000000 16.809443 -4.773187 -1.164381 55.949751 0.871187 -5.228245 10.757347 33.398745 5.508999 0.000000 0.000000 0.000000 
0.002923 0.957334 -0.000962 -1.151165 23.702593 5.248667 -0.841495 -0.678843 -7.648318 1.611162 -0.083895 -0.673993 -2.485261 3.346433 11.534958 0.000000 0.000000 0.000000 -1.689762 0.786159 -13.634216 -1.357528 0.289917 9.402030 -6.068917 -12.797322 18.473132 0.000000 0.000000 0.000000 -0.322704 -0.291350 6.357646 2.680151 -0.537101 -6.420517 -3.586391 -1.225182 5.801271 8.328770 -3.165449 -13.864273 0.000000 0.000000 0.000000 -12.744431 -0.347688 -3.130714 -53.391173 -6.640779 -3.533935 -21.245129 -35.326780 6.617888 0.000000 0.000000 0.000000 14.890337 -4.739758 -1.420107 57.219976 -0.533982 -5.638415 11.715899 34.240981 5.890014 0.000000 0.000000 0.000000 
0.002943 0.957342 0.002287 -1.054426 22.114780 5.037067 -0.740453 -0.647635 -7.331755 1.279186 -0.090847 -0.123052 -1.625128 4.456177 11.429879 0.000000 0.000000 0.000000 -1.996947 0.796016 -14.268348 -1.077123 0.236894 10.874230 -5.092573 -11.435110 18.067560 0.000000 0.000000 0.000000 -0.743889 -0.316375 7.351970 3.298610 -0.842362 -6.190159 -4.295100 -0.849241 5.563045 9.054523 -3.764765 -13.524017 0.000000 0.000000 0.000000 -12.529409 -0.157254 -3.074563 -52.769022 -5.620757 -3.894064 -24.186727 -38.311160 8.227812 0.000000 0.000000 0.000000 14.517756 -5.790573 -2.095703 57.812622 -2.897211 -6.655719 13.928566 35.640087 6.861046 0.000000 0.000000 0.000000 
0.002271 0.956633 0.007748 -1.254035 19.240794 4.806803 -0.660901 -0.594263 -6.766541 1.535106 -0.134411 0.281594 -0.043531 6.505466 11.189788 0.000000 0.000000 0.000000 -1.746630 0.924814 -15.058983 -1.378072 0.356880 12.551783 -3.130633 -8.509742 16.845068 0.000000 0.000000 0.000000 -0.820005 -0.286753 7.099163 3.063947 -0.779817 -6.261524 -3.603538 -1.876217 6.233213 9.745065 -4.371715 -14.067963 0.000000 0.000000 0.000000 -12.512219 -0.073762 -2.642265 -52.808698 -4.618748 -4.416974 -27.544012 -41.267062 10.640120 0.000000 0.000000 0.000000 13.550079 -5.461224 -2.332098 57.957554 -4.368947 -7.468965 16.492187 36.629494 7.698928 0.000000 0.000000 0.000000 
0.000569 0.954783 0.014817 -1.279489 15.414291 4.376314 -0.403036 -0.542795 -6.179936 1.125323 -0.170039 1.514278 2.131042 9.339994 10.817108 0.000000 0.000000 0.000000 -1.686614 1.060022 -15.897726 -1.220655 0.413545 14.590007 -1.358252 -5.909597 15.533926 0.000000 0.000000 0.000000 -0.924846 -0.277415 7.296390 3.236659 -0.913911 -6.219887 -3.522279 -2.089595 6.491809 10.039526 -4.842780 -13.838976 0.000000 0.000000 0.000000 -12.477506 -0.213865 -2.181877 -52.949802 -2.839777 -5.226941 -33.837906 -45.956046 15.191730 0.000000 0.000000 0.000000 12.969147 -4.909346 -2.387739 58.314443 -6.028189 -8.393902 20.570739 39.808951 9.735338 0.000000 0.000000 0.000000 
-0.002418 0.952932 0.023189 -1.470897 10.586848 3.856802 0.188307 -0.454999 -5.207444 0.334258 -0.139837 2.519306 4.755504 12.985734 10.944328 0.000000 0.000000 0.000000 -1.581474 1.280697 -17.486464 -0.832129 0.491125 17.894837 1.053568 -2.224262 14.760965 0.000000 0.000000 0.000000 -0.854223 -0.263683 7.209149 3.242874 -1.010911 -5.999102 -2.991547 -2.747773 6.923541 10.314845 -5.354349 -13.828990 0.000000 0.000000 0.000000 -11.637729 -0.851327 -1.202660 -54.134519 -1.821683 -5.894817 -42.605882 -49.984625 22.042881 0.000000 0.000000 0.000000 11.712273 -4.116618 -2.403175 59.285352 -7.314605 -9.344284 25.397560 42.417983 11.911787 0.000000 0.000000 0.000000 
